<mxfile host="app.diagrams.net" modified="2023-08-15T11:35:22.183Z" agent="Mozilla/5.0 (Macintosh; Intel Mac OS X 10_15_7) AppleWebKit/537.36 (KHTML, like Gecko) Chrome/115.0.0.0 Safari/537.36 Edg/115.0.1901.203" etag="F1W9B0D4Mhg6mNFYXLsG" version="21.6.8" type="device">
  <diagram name="第 1 页" id="XjcKkJZFaE9VjZtC2m0P">
    <mxGraphModel dx="954" dy="648" grid="1" gridSize="10" guides="1" tooltips="1" connect="1" arrows="1" fold="1" page="1" pageScale="1" pageWidth="827" pageHeight="1169" math="0" shadow="0">
      <root>
        <mxCell id="0" />
        <mxCell id="1" parent="0" />
        <mxCell id="-LmAr_GwVTla0GqB2lpt-1" style="edgeStyle=orthogonalEdgeStyle;rounded=0;orthogonalLoop=1;jettySize=auto;html=1;exitX=1;exitY=0.5;exitDx=0;exitDy=0;" edge="1" parent="1" source="-LmAr_GwVTla0GqB2lpt-2" target="-LmAr_GwVTla0GqB2lpt-30">
          <mxGeometry relative="1" as="geometry">
            <mxPoint x="335" y="320" as="targetPoint" />
            <Array as="points">
              <mxPoint x="315" y="185" />
              <mxPoint x="315" y="320" />
            </Array>
          </mxGeometry>
        </mxCell>
        <mxCell id="-LmAr_GwVTla0GqB2lpt-2" value="io-task-0" style="rounded=1;whiteSpace=wrap;html=1;fillColor=#ffe6cc;strokeColor=#d79b00;" vertex="1" parent="1">
          <mxGeometry x="205" y="170" width="80" height="30" as="geometry" />
        </mxCell>
        <mxCell id="-LmAr_GwVTla0GqB2lpt-3" style="edgeStyle=orthogonalEdgeStyle;rounded=0;orthogonalLoop=1;jettySize=auto;html=1;exitX=1;exitY=0.5;exitDx=0;exitDy=0;entryX=0;entryY=0.5;entryDx=0;entryDy=0;entryPerimeter=0;" edge="1" parent="1" source="-LmAr_GwVTla0GqB2lpt-4" target="-LmAr_GwVTla0GqB2lpt-30">
          <mxGeometry relative="1" as="geometry">
            <Array as="points">
              <mxPoint x="305" y="230" />
              <mxPoint x="305" y="330" />
            </Array>
          </mxGeometry>
        </mxCell>
        <mxCell id="-LmAr_GwVTla0GqB2lpt-4" value="io-task-1" style="rounded=1;whiteSpace=wrap;html=1;fillColor=#ffe6cc;strokeColor=#d79b00;" vertex="1" parent="1">
          <mxGeometry x="205" y="210" width="80" height="30" as="geometry" />
        </mxCell>
        <mxCell id="-LmAr_GwVTla0GqB2lpt-5" style="edgeStyle=orthogonalEdgeStyle;rounded=0;orthogonalLoop=1;jettySize=auto;html=1;exitX=1;exitY=0.5;exitDx=0;exitDy=0;" edge="1" parent="1" source="-LmAr_GwVTla0GqB2lpt-6" target="-LmAr_GwVTla0GqB2lpt-30">
          <mxGeometry relative="1" as="geometry">
            <mxPoint x="334.9999999999999" y="437.5" as="sourcePoint" />
            <mxPoint x="375" y="340" as="targetPoint" />
            <Array as="points">
              <mxPoint x="305" y="440" />
              <mxPoint x="305" y="340" />
            </Array>
          </mxGeometry>
        </mxCell>
        <mxCell id="-LmAr_GwVTla0GqB2lpt-6" value="io-task-2" style="rounded=1;whiteSpace=wrap;html=1;fillColor=#ffe6cc;strokeColor=#d79b00;" vertex="1" parent="1">
          <mxGeometry x="205" y="430" width="80" height="30" as="geometry" />
        </mxCell>
        <mxCell id="-LmAr_GwVTla0GqB2lpt-7" style="edgeStyle=orthogonalEdgeStyle;rounded=0;orthogonalLoop=1;jettySize=auto;html=1;exitX=1;exitY=0.5;exitDx=0;exitDy=0;entryX=0.001;entryY=0.721;entryDx=0;entryDy=0;entryPerimeter=0;" edge="1" parent="1" source="-LmAr_GwVTla0GqB2lpt-8" target="-LmAr_GwVTla0GqB2lpt-30">
          <mxGeometry relative="1" as="geometry">
            <mxPoint x="295" y="514" as="sourcePoint" />
            <mxPoint x="345" y="348.99999999999994" as="targetPoint" />
            <Array as="points">
              <mxPoint x="285" y="490" />
              <mxPoint x="315" y="490" />
              <mxPoint x="315" y="350" />
            </Array>
          </mxGeometry>
        </mxCell>
        <mxCell id="-LmAr_GwVTla0GqB2lpt-8" value="io-task-3" style="rounded=1;whiteSpace=wrap;html=1;fillColor=#ffe6cc;strokeColor=#d79b00;" vertex="1" parent="1">
          <mxGeometry x="205" y="467" width="80" height="30" as="geometry" />
        </mxCell>
        <mxCell id="-LmAr_GwVTla0GqB2lpt-9" value="" style="edgeStyle=orthogonalEdgeStyle;rounded=0;orthogonalLoop=1;jettySize=auto;html=1;exitX=0.5;exitY=0;exitDx=0;exitDy=0;entryX=0;entryY=0.5;entryDx=0;entryDy=0;" edge="1" parent="1" source="-LmAr_GwVTla0GqB2lpt-25">
          <mxGeometry x="0.3956" y="5" relative="1" as="geometry">
            <mxPoint x="132.20750000000004" y="305.28000000000003" as="sourcePoint" />
            <mxPoint x="204" y="185" as="targetPoint" />
            <Array as="points">
              <mxPoint x="125" y="300" />
              <mxPoint x="125" y="185" />
            </Array>
            <mxPoint as="offset" />
          </mxGeometry>
        </mxCell>
        <mxCell id="-LmAr_GwVTla0GqB2lpt-10" style="edgeStyle=orthogonalEdgeStyle;rounded=0;orthogonalLoop=1;jettySize=auto;html=1;exitX=1;exitY=0;exitDx=0;exitDy=0;entryX=0;entryY=0.5;entryDx=0;entryDy=0;" edge="1" parent="1" source="-LmAr_GwVTla0GqB2lpt-25" target="-LmAr_GwVTla0GqB2lpt-4">
          <mxGeometry relative="1" as="geometry">
            <mxPoint x="166.24000000000024" y="319.44000000000005" as="sourcePoint" />
            <Array as="points">
              <mxPoint x="155" y="310" />
              <mxPoint x="155" y="225" />
            </Array>
          </mxGeometry>
        </mxCell>
        <mxCell id="-LmAr_GwVTla0GqB2lpt-11" style="edgeStyle=orthogonalEdgeStyle;rounded=0;orthogonalLoop=1;jettySize=auto;html=1;entryX=0;entryY=0.5;entryDx=0;entryDy=0;exitX=1;exitY=1;exitDx=0;exitDy=0;" edge="1" parent="1" source="-LmAr_GwVTla0GqB2lpt-25" target="-LmAr_GwVTla0GqB2lpt-6">
          <mxGeometry relative="1" as="geometry">
            <mxPoint x="166.96000000000004" y="358.55999999999995" as="sourcePoint" />
            <Array as="points">
              <mxPoint x="155" y="360" />
              <mxPoint x="155" y="445" />
            </Array>
          </mxGeometry>
        </mxCell>
        <mxCell id="-LmAr_GwVTla0GqB2lpt-12" style="edgeStyle=orthogonalEdgeStyle;rounded=0;orthogonalLoop=1;jettySize=auto;html=1;entryX=0.406;entryY=1.007;entryDx=0;entryDy=0;entryPerimeter=0;" edge="1" parent="1" target="-LmAr_GwVTla0GqB2lpt-41">
          <mxGeometry relative="1" as="geometry">
            <mxPoint x="635" y="446" as="sourcePoint" />
            <mxPoint x="687.5" y="360" as="targetPoint" />
          </mxGeometry>
        </mxCell>
        <mxCell id="-LmAr_GwVTla0GqB2lpt-13" style="edgeStyle=orthogonalEdgeStyle;rounded=0;orthogonalLoop=1;jettySize=auto;html=1;exitX=1;exitY=0.5;exitDx=0;exitDy=0;entryX=0;entryY=0.5;entryDx=0;entryDy=0;" edge="1" parent="1" source="-LmAr_GwVTla0GqB2lpt-14" target="-LmAr_GwVTla0GqB2lpt-38">
          <mxGeometry relative="1" as="geometry" />
        </mxCell>
        <mxCell id="-LmAr_GwVTla0GqB2lpt-14" value="ChunkSource-2" style="rounded=1;whiteSpace=wrap;html=1;fillColor=#fff2cc;strokeColor=#d6b656;" vertex="1" parent="1">
          <mxGeometry x="435" y="430" width="90" height="30" as="geometry" />
        </mxCell>
        <mxCell id="-LmAr_GwVTla0GqB2lpt-15" style="edgeStyle=orthogonalEdgeStyle;rounded=0;orthogonalLoop=1;jettySize=auto;html=1;entryX=0.547;entryY=1.007;entryDx=0;entryDy=0;entryPerimeter=0;exitX=1;exitY=0.5;exitDx=0;exitDy=0;" edge="1" parent="1" source="-LmAr_GwVTla0GqB2lpt-39" target="-LmAr_GwVTla0GqB2lpt-41">
          <mxGeometry relative="1" as="geometry">
            <mxPoint x="645" y="490" as="sourcePoint" />
            <mxPoint x="698.5699999999999" y="368.96000000000004" as="targetPoint" />
          </mxGeometry>
        </mxCell>
        <mxCell id="-LmAr_GwVTla0GqB2lpt-16" style="edgeStyle=orthogonalEdgeStyle;rounded=0;orthogonalLoop=1;jettySize=auto;html=1;exitX=1;exitY=0.5;exitDx=0;exitDy=0;entryX=0;entryY=0.5;entryDx=0;entryDy=0;" edge="1" parent="1" source="-LmAr_GwVTla0GqB2lpt-17" target="-LmAr_GwVTla0GqB2lpt-39">
          <mxGeometry relative="1" as="geometry" />
        </mxCell>
        <mxCell id="-LmAr_GwVTla0GqB2lpt-17" value="ChunkSource-3" style="rounded=1;whiteSpace=wrap;html=1;fillColor=#fff2cc;strokeColor=#d6b656;" vertex="1" parent="1">
          <mxGeometry x="435" y="467" width="90" height="30" as="geometry" />
        </mxCell>
        <mxCell id="-LmAr_GwVTla0GqB2lpt-18" style="edgeStyle=orthogonalEdgeStyle;rounded=0;orthogonalLoop=1;jettySize=auto;html=1;exitX=1;exitY=0.5;exitDx=0;exitDy=0;" edge="1" parent="1" source="-LmAr_GwVTla0GqB2lpt-37" target="-LmAr_GwVTla0GqB2lpt-41">
          <mxGeometry relative="1" as="geometry">
            <mxPoint x="655" y="231" as="sourcePoint" />
            <mxPoint x="688.3100000000001" y="322.40000000000003" as="targetPoint" />
            <Array as="points">
              <mxPoint x="688" y="225" />
            </Array>
          </mxGeometry>
        </mxCell>
        <mxCell id="-LmAr_GwVTla0GqB2lpt-19" style="edgeStyle=orthogonalEdgeStyle;rounded=0;orthogonalLoop=1;jettySize=auto;html=1;exitX=1;exitY=0.5;exitDx=0;exitDy=0;entryX=0;entryY=0.5;entryDx=0;entryDy=0;" edge="1" parent="1" source="-LmAr_GwVTla0GqB2lpt-20" target="-LmAr_GwVTla0GqB2lpt-37">
          <mxGeometry relative="1" as="geometry" />
        </mxCell>
        <mxCell id="-LmAr_GwVTla0GqB2lpt-20" value="ChunkSource-1" style="rounded=1;whiteSpace=wrap;html=1;fillColor=#fff2cc;strokeColor=#d6b656;" vertex="1" parent="1">
          <mxGeometry x="435" y="210" width="90" height="30" as="geometry" />
        </mxCell>
        <mxCell id="-LmAr_GwVTla0GqB2lpt-21" style="edgeStyle=orthogonalEdgeStyle;rounded=0;orthogonalLoop=1;jettySize=auto;html=1;entryX=0.576;entryY=-0.007;entryDx=0;entryDy=0;entryPerimeter=0;exitX=1;exitY=0.5;exitDx=0;exitDy=0;" edge="1" parent="1" source="-LmAr_GwVTla0GqB2lpt-36" target="-LmAr_GwVTla0GqB2lpt-41">
          <mxGeometry relative="1" as="geometry">
            <mxPoint x="645" y="180" as="sourcePoint" />
            <mxPoint x="701" y="309.59999999999997" as="targetPoint" />
          </mxGeometry>
        </mxCell>
        <mxCell id="-LmAr_GwVTla0GqB2lpt-22" style="edgeStyle=orthogonalEdgeStyle;rounded=0;orthogonalLoop=1;jettySize=auto;html=1;exitX=1;exitY=0.5;exitDx=0;exitDy=0;entryX=0;entryY=0.5;entryDx=0;entryDy=0;" edge="1" parent="1" source="-LmAr_GwVTla0GqB2lpt-23" target="-LmAr_GwVTla0GqB2lpt-36">
          <mxGeometry relative="1" as="geometry" />
        </mxCell>
        <mxCell id="-LmAr_GwVTla0GqB2lpt-23" value="ChunkSource-0" style="rounded=1;whiteSpace=wrap;html=1;fillColor=#fff2cc;strokeColor=#d6b656;" vertex="1" parent="1">
          <mxGeometry x="435" y="170" width="90" height="30" as="geometry" />
        </mxCell>
        <mxCell id="-LmAr_GwVTla0GqB2lpt-24" style="edgeStyle=orthogonalEdgeStyle;rounded=0;orthogonalLoop=1;jettySize=auto;html=1;exitX=0.5;exitY=1;exitDx=0;exitDy=0;" edge="1" parent="1">
          <mxGeometry relative="1" as="geometry">
            <mxPoint x="122.75" y="370" as="sourcePoint" />
            <mxPoint x="203.99999999999994" y="480" as="targetPoint" />
            <Array as="points">
              <mxPoint x="124" y="370" />
              <mxPoint x="124" y="480" />
            </Array>
          </mxGeometry>
        </mxCell>
        <mxCell id="-LmAr_GwVTla0GqB2lpt-25" value="MorselQueue" style="ellipse;whiteSpace=wrap;html=1;fillColor=#dae8fc;strokeColor=#6c8ebf;" vertex="1" parent="1">
          <mxGeometry x="75" y="300" width="97.5" height="70" as="geometry" />
        </mxCell>
        <mxCell id="-LmAr_GwVTla0GqB2lpt-26" style="edgeStyle=orthogonalEdgeStyle;rounded=0;orthogonalLoop=1;jettySize=auto;html=1;exitX=0.983;exitY=0.387;exitDx=0;exitDy=0;exitPerimeter=0;entryX=0;entryY=0.5;entryDx=0;entryDy=0;" edge="1" parent="1" source="-LmAr_GwVTla0GqB2lpt-30" target="-LmAr_GwVTla0GqB2lpt-23">
          <mxGeometry relative="1" as="geometry">
            <Array as="points">
              <mxPoint x="390" y="325" />
              <mxPoint x="405" y="325" />
              <mxPoint x="405" y="185" />
            </Array>
          </mxGeometry>
        </mxCell>
        <mxCell id="-LmAr_GwVTla0GqB2lpt-27" style="edgeStyle=orthogonalEdgeStyle;rounded=0;orthogonalLoop=1;jettySize=auto;html=1;exitX=1;exitY=0.5;exitDx=0;exitDy=0;exitPerimeter=0;entryX=0;entryY=0.5;entryDx=0;entryDy=0;" edge="1" parent="1" source="-LmAr_GwVTla0GqB2lpt-30" target="-LmAr_GwVTla0GqB2lpt-20">
          <mxGeometry relative="1" as="geometry">
            <Array as="points">
              <mxPoint x="415" y="330" />
              <mxPoint x="415" y="225" />
            </Array>
          </mxGeometry>
        </mxCell>
        <mxCell id="-LmAr_GwVTla0GqB2lpt-28" style="edgeStyle=orthogonalEdgeStyle;rounded=0;orthogonalLoop=1;jettySize=auto;html=1;exitX=0.997;exitY=0.577;exitDx=0;exitDy=0;exitPerimeter=0;entryX=0;entryY=0.5;entryDx=0;entryDy=0;" edge="1" parent="1" source="-LmAr_GwVTla0GqB2lpt-30" target="-LmAr_GwVTla0GqB2lpt-14">
          <mxGeometry relative="1" as="geometry">
            <mxPoint x="395" y="340" as="sourcePoint" />
            <mxPoint x="435" y="437.4999999999999" as="targetPoint" />
            <Array as="points">
              <mxPoint x="415" y="337" />
              <mxPoint x="415" y="445" />
            </Array>
          </mxGeometry>
        </mxCell>
        <mxCell id="-LmAr_GwVTla0GqB2lpt-29" style="edgeStyle=orthogonalEdgeStyle;rounded=0;orthogonalLoop=1;jettySize=auto;html=1;exitX=1;exitY=0;exitDx=0;exitDy=52.5;exitPerimeter=0;" edge="1" parent="1" source="-LmAr_GwVTla0GqB2lpt-30" target="-LmAr_GwVTla0GqB2lpt-17">
          <mxGeometry relative="1" as="geometry">
            <Array as="points">
              <mxPoint x="391" y="343" />
              <mxPoint x="405" y="343" />
              <mxPoint x="405" y="480" />
            </Array>
          </mxGeometry>
        </mxCell>
        <mxCell id="-LmAr_GwVTla0GqB2lpt-30" value="storage" style="shape=cylinder3;whiteSpace=wrap;html=1;boundedLbl=1;backgroundOutline=1;size=15;fillColor=#a20025;fontColor=#ffffff;strokeColor=#6F0000;strokeWidth=2;" vertex="1" parent="1">
          <mxGeometry x="331" y="285" width="60" height="90" as="geometry" />
        </mxCell>
        <mxCell id="-LmAr_GwVTla0GqB2lpt-31" value="" style="rounded=1;whiteSpace=wrap;html=1;fillColor=none;dashed=1;" vertex="1" parent="1">
          <mxGeometry x="75" y="128.5" width="700" height="403" as="geometry" />
        </mxCell>
        <mxCell id="-LmAr_GwVTla0GqB2lpt-32" value="&lt;i&gt;ScanOperator::pull_chunk&lt;/i&gt; 函数流程" style="text;html=1;strokeColor=none;fillColor=none;align=center;verticalAlign=middle;whiteSpace=wrap;rounded=0;" vertex="1" parent="1">
          <mxGeometry x="260" y="550" width="238.25" height="20" as="geometry" />
        </mxCell>
        <mxCell id="-LmAr_GwVTla0GqB2lpt-33" value="" style="shape=flexArrow;endArrow=classic;html=1;rounded=0;entryX=0;entryY=0.528;entryDx=0;entryDy=0;entryPerimeter=0;" edge="1" parent="1">
          <mxGeometry width="50" height="50" relative="1" as="geometry">
            <mxPoint x="5" y="339" as="sourcePoint" />
            <mxPoint x="62" y="338.5200000000001" as="targetPoint" />
          </mxGeometry>
        </mxCell>
        <mxCell id="-LmAr_GwVTla0GqB2lpt-34" value="&lt;span style=&quot;color: rgb(0, 0, 0); font-family: Helvetica; font-size: 12px; font-style: normal; font-variant-ligatures: normal; font-variant-caps: normal; letter-spacing: normal; orphans: 2; text-align: center; text-indent: 0px; text-transform: none; widows: 2; word-spacing: 0px; -webkit-text-stroke-width: 0px; background-color: rgb(251, 251, 251); text-decoration-thickness: initial; text-decoration-style: initial; text-decoration-color: initial; float: none; display: inline !important;&quot;&gt;&lt;b&gt;pull_chunk&lt;/b&gt;&lt;/span&gt;" style="text;whiteSpace=wrap;html=1;" vertex="1" parent="1">
          <mxGeometry x="5" y="300" width="70" height="30" as="geometry" />
        </mxCell>
        <mxCell id="-LmAr_GwVTla0GqB2lpt-35" value="&lt;b&gt;chunk&lt;/b&gt;" style="text;html=1;align=center;verticalAlign=middle;resizable=0;points=[];autosize=1;strokeColor=none;fillColor=none;" vertex="1" parent="1">
          <mxGeometry x="765" y="320" width="60" height="30" as="geometry" />
        </mxCell>
        <mxCell id="-LmAr_GwVTla0GqB2lpt-36" value="ChunkBuffer-0" style="rounded=1;whiteSpace=wrap;html=1;fillColor=#D6B2B0;strokeColor=#b85450;" vertex="1" parent="1">
          <mxGeometry x="565" y="170" width="80" height="30" as="geometry" />
        </mxCell>
        <mxCell id="-LmAr_GwVTla0GqB2lpt-37" value="ChunkBuffer-1" style="rounded=1;whiteSpace=wrap;html=1;fillColor=#D6B2B0;strokeColor=#D6B2B0;" vertex="1" parent="1">
          <mxGeometry x="565" y="210" width="80" height="30" as="geometry" />
        </mxCell>
        <mxCell id="-LmAr_GwVTla0GqB2lpt-38" value="ChunkBuffer-1" style="rounded=1;whiteSpace=wrap;html=1;fillColor=#D6B2B0;strokeColor=#D6B2B0;" vertex="1" parent="1">
          <mxGeometry x="565" y="430" width="80" height="30" as="geometry" />
        </mxCell>
        <mxCell id="-LmAr_GwVTla0GqB2lpt-39" value="ChunkBuffer-2" style="rounded=1;whiteSpace=wrap;html=1;fillColor=#D6B2B0;strokeColor=#D6B2B0;" vertex="1" parent="1">
          <mxGeometry x="565" y="467" width="80" height="30" as="geometry" />
        </mxCell>
        <mxCell id="-LmAr_GwVTla0GqB2lpt-40" style="edgeStyle=orthogonalEdgeStyle;rounded=0;orthogonalLoop=1;jettySize=auto;html=1;exitX=1;exitY=0.5;exitDx=0;exitDy=0;strokeWidth=3;" edge="1" parent="1">
          <mxGeometry relative="1" as="geometry">
            <mxPoint x="814" y="358" as="targetPoint" />
            <mxPoint x="740" y="357.5" as="sourcePoint" />
          </mxGeometry>
        </mxCell>
        <mxCell id="-LmAr_GwVTla0GqB2lpt-41" value="ChunkBuffer" style="rounded=1;whiteSpace=wrap;html=1;fillColor=#f8cecc;strokeColor=#b85450;" vertex="1" parent="1">
          <mxGeometry x="645" y="330" width="100" height="55" as="geometry" />
        </mxCell>
        <mxCell id="-LmAr_GwVTla0GqB2lpt-42" value="morsel" style="text;html=1;strokeColor=none;fillColor=none;align=center;verticalAlign=middle;whiteSpace=wrap;rounded=0;" vertex="1" parent="1">
          <mxGeometry x="125" y="166" width="60" height="20" as="geometry" />
        </mxCell>
        <mxCell id="-LmAr_GwVTla0GqB2lpt-43" value="morsel" style="text;html=1;strokeColor=none;fillColor=none;align=center;verticalAlign=middle;whiteSpace=wrap;rounded=0;" vertex="1" parent="1">
          <mxGeometry x="122.5" y="477" width="60" height="20" as="geometry" />
        </mxCell>
        <mxCell id="-LmAr_GwVTla0GqB2lpt-44" value="" style="rounded=1;whiteSpace=wrap;html=1;fillColor=none;dashed=1;strokeColor=#ce8d8d;" vertex="1" parent="1">
          <mxGeometry x="189" y="160" width="112.75" height="360" as="geometry" />
        </mxCell>
        <mxCell id="-LmAr_GwVTla0GqB2lpt-45" value="&lt;i&gt;ScanExecutor&lt;/i&gt;" style="text;html=1;strokeColor=none;fillColor=none;align=center;verticalAlign=middle;whiteSpace=wrap;rounded=0;" vertex="1" parent="1">
          <mxGeometry x="199" y="135" width="90" height="23" as="geometry" />
        </mxCell>
        <mxCell id="-LmAr_GwVTla0GqB2lpt-46" value="" style="rounded=1;whiteSpace=wrap;html=1;fillColor=none;dashed=1;strokeColor=#F19C99;" vertex="1" parent="1">
          <mxGeometry x="543.62" y="160" width="206.38" height="360" as="geometry" />
        </mxCell>
        <mxCell id="-LmAr_GwVTla0GqB2lpt-47" value="&lt;i&gt;ChunkBuffer&lt;/i&gt;" style="text;html=1;strokeColor=none;fillColor=none;align=center;verticalAlign=middle;whiteSpace=wrap;rounded=0;" vertex="1" parent="1">
          <mxGeometry x="595" y="135" width="90" height="23" as="geometry" />
        </mxCell>
      </root>
    </mxGraphModel>
  </diagram>
</mxfile>
